<?xml version="1.0" encoding="UTF-8"?>
<svg viewBox="0 0 691.29553 591.63287" xmlns="http://www.w3.org/2000/svg">
 <g transform="translate(291.2 -396.73)">
  <g transform="matrix(-.97633 0 0 .91181 -220.92 87.091)">
   <path d="m-220 443.79h257.14v257.14h-257.14z" stroke="#000" stroke-opacity=".00391" stroke-width="3.6"/>
   <path d="m48.571 412.36c-7.7003 69.134-66.152 37.796-158.57 37.143-92.308-0.65254-175.71-5.5837-175.71-37.143s75.353-47.351 167.14-57.143c100.92-10.766 178.38-43.788 167.14 57.143z" stroke="#000" stroke-opacity=".00391" stroke-width="3.6"/>
   <path d="m25.365 407.19c-6.7614 44.285-58.086 24.211-139.24 23.793-81.052-0.418-154.29-3.5768-154.29-23.793s66.165-30.332 146.76-36.604c88.616-6.8962 156.63-28.049 146.76 36.604z" fill="#00f" stroke="#000" stroke-opacity=".00391" stroke-width="2.6999"/>
   <path d="m-243.69 380.1h17.446c37.016 16.862 28.665 33.725 0 50.587h-17.446c28.665-17.624 37.016-34.709 0-50.587z" stroke="#000" stroke-opacity=".00391" stroke-width="1.2314"/>
   <path d="m-282.86 420.93h71.429v354.29h-71.429z" stroke="#000" stroke-opacity=".00391" stroke-width="3.6"/>
   <path d="m-271.43 426.65h45.714v331.43h-45.714z" fill="#00f" stroke="#000" stroke-opacity=".00391" stroke-width="3.6"/>
   <path transform="matrix(.97782,-.20946,.34334,.93921,0,0)" d="m-447.8 647.41h239.18v150.25h-239.18z" stroke="#000" stroke-opacity=".00391" stroke-width="3.1651"/>
   <path transform="matrix(.98257,-.18587,.38249,.92396,0,0)" d="m-467.33 677.27h209.88v118.93h-209.88z" fill="#00f" stroke="#000" stroke-opacity=".00391" stroke-width="2.6379"/>
   <path transform="matrix(1.0564 -.09082 .08785 1.0921 11.72 -61.614)" d="m-232.45 462.12h171.43v191.43h-171.43z" fill="#fff" stroke="#000" stroke-opacity=".00391" stroke-width="3.6"/>
   <path transform="matrix(1.0562 -.09272 .08605 1.0923 11.72 -61.614)" d="m-225.16 470.7h151.95v173.19h-151.95z" stroke="#000" stroke-opacity=".00391" stroke-width="3.2238"/>
   <path d="m-31.429 620.93c0 14.202-12.792 25.714-28.571 25.714s-28.571-11.513-28.571-25.714 12.792-25.714 28.571-25.714 28.571 11.513 28.571 25.714z" fill="#fff" stroke="#000" stroke-opacity=".00391" stroke-width="3.6"/>
   <g transform="matrix(.64366 0 0 .51027 438.69 360.76)" stroke="#000" stroke-opacity=".00391" stroke-width="3.6">
    <path transform="matrix(.66879 0 0 .77195 -232.52 125.72)" d="m-642.86 482.36c0 37.082-31.34 67.143-70 67.143s-70-30.061-70-67.143 31.34-67.143 70-67.143 70 30.061 70 67.143z"/>
    <path d="m-734.29 529.51h51.429v222.86h-51.429z"/>
    <path d="m-725.71 503.79h28.571v234.29h-28.571z" fill="#ccc"/>
    <path d="m-671.43 498.08c0 22.091-16.629 40-37.143 40s-37.143-17.909-37.143-40 16.629-40 37.143-40 37.143 17.909 37.143 40z" fill="#ccc"/>
   </g>
   <g transform="matrix(.29433 0 0 .28224 39.042 456.95)" stroke="#000" stroke-opacity=".00391">
    <path transform="matrix(4.0068 0 0 4.1934 -73.353 -2172.1)" d="m-117.14 749.51c0 12.624-8.9543 22.857-20 22.857s-20-10.233-20-22.857 8.9543-22.857 20-22.857 20 10.233 20 22.857z" stroke-width="3.6"/>
    <path d="m-560 968.08c0 40.238-27.503 72.857-61.429 72.857s-61.429-32.619-61.429-72.857 27.503-72.857 61.429-72.857 61.429 32.619 61.429 72.857z" fill="#0f0" stroke-width="3.6"/>
    <path d="m-683.53 965.97c27.107 67.073 74.608 44.847 127.27 0v29.629c-44.945 24.831-90.636 57.015-127.27 0z" stroke-width="2.3266"/>
   </g>
   <path transform="matrix(1.2501 0 0 1.2947 95.734 -212.33)" d="m-117.14 749.51c0 12.624-8.9543 22.857-20 22.857s-20-10.233-20-22.857 8.9543-22.857 20-22.857 20 10.233 20 22.857z" stroke="#000" stroke-opacity=".00391" stroke-width="3.6"/>
   <g transform="matrix(1.06 0 0 1.094 12.118 -77.471)" stroke="#000" stroke-opacity=".00391">
    <path transform="matrix(.29433 0 0 .28224 100.47 489.76)" d="m-560 968.08c0 40.238-27.503 72.857-61.429 72.857s-61.429-32.619-61.429-72.857 27.503-72.857 61.429-72.857 61.429 32.619 61.429 72.857z" fill="#ff0" stroke-width="3.6"/>
    <path d="m-100.72 762.39c7.9785 18.93 21.959 12.657 37.461 0v8.3624c-13.229 7.0082-26.677 16.092-37.461 0z" stroke-width=".67057"/>
   </g>
   <g transform="matrix(.12927 0 0 .1368 -285.4 685.11)" stroke="#000" stroke-opacity=".00391">
    <path transform="matrix(10.156 0 0 10.339 2572.8 -7028.1)" d="m-117.14 749.51c0 12.624-8.9543 22.857-20 22.857s-20-10.233-20-22.857 8.9543-22.857 20-22.857 20 10.233 20 22.857z" stroke-width="3.6"/>
    <path transform="matrix(2.5346 0 0 2.4655 2758.7 -1672.9)" d="m-560 968.08c0 40.238-27.503 72.857-61.429 72.857s-61.429-32.619-61.429-72.857 27.503-72.857 61.429-72.857 61.429 32.619 61.429 72.857z" fill="#f00" stroke-width="3.6"/>
    <path d="m1026.2 708.7c68.706 165.37 189.1 110.57 322.59 0v73.05c-113.92 61.221-229.73 140.57-322.59 0z" stroke-width="5.816"/>
   </g>
   <path d="m-214.29 712.36h8.5714v140h-8.5714z" stroke="#000" stroke-opacity=".00391" stroke-width="3.6"/>
   <path d="m-205.71 729.51h11.429v157.14h-11.429z" stroke="#000" stroke-opacity=".00391" stroke-width="3.6"/>
   <path d="m-205.71 749.51h14.286v140h-14.286z" stroke="#000" stroke-opacity=".00391" stroke-width="3.6"/>
   <path d="m-202.86 760.93h20v148.57h-20z" stroke="#000" stroke-opacity=".00391" stroke-width="3.6"/>
   <path d="m-182.86 792.36h14.286v102.86h-14.286z" stroke="#000" stroke-opacity=".00391" stroke-width="3.6"/>
   <path d="m-171.43 832.36h214.29v151.43h-214.29z" stroke="#000" stroke-opacity=".00391" stroke-width="3.6"/>
   <path d="m-117.14 823.79h174.29v34.286h-174.29z" stroke="#000" stroke-opacity=".00391" stroke-width="3.6"/>
   <path d="m60 780.93h8.5714v202.86h-8.5714z" stroke="#000" stroke-opacity=".00391" stroke-width="3.6"/>
   <path d="m-77.143 812.36h140v34.286h-140z" stroke="#000" stroke-opacity=".00391" stroke-width="3.6"/>
   <path d="m-17.143 812.36h82.857v171.43h-82.857z" stroke="#000" stroke-opacity=".00391" stroke-width="3.6"/>
   <path d="m-17.143 806.65h54.286v28.571h-54.286z" stroke="#000" stroke-opacity=".00391" stroke-width="3.6"/>
   <path d="m-25.714 806.65h22.857v42.857h-22.857z" stroke="#000" stroke-opacity=".00391" stroke-width="3.6"/>
   <path d="m8.5714 798.08h54.286v31.429h-54.286z" stroke="#000" stroke-opacity=".00391" stroke-width="3.6"/>
   <path d="m2.8571 803.79h17.143v25.714h-17.143z" stroke="#000" stroke-opacity=".00391" stroke-width="3.6"/>
   <path d="m37.143 792.36h22.857v54.286h-22.857z" stroke="#000" stroke-opacity=".00391" stroke-width="3.6"/>
   <path transform="rotate(28.206)" d="m182.61 905.96h128.57v45.714h-128.57z" stroke="#000" stroke-opacity=".00391" stroke-width="3.6"/>
   <path d="m-185.71 963.79h17.143v17.143h-17.143z" fill="none" stroke="#000" stroke-opacity=".00391" stroke-width="3.6"/>
   <path d="m-285.71 772.36h88.571v157.14h-88.571z" stroke="#000" stroke-opacity=".00391" stroke-width="3.6"/>
   <path d="m-211.43 883.79h91.429v77.143h-91.429z" stroke="#000" stroke-opacity=".00391" stroke-width="3.6"/>
   <path d="m-271.43 769.51h51.429v125.71h-51.429z" fill="#00f" stroke="#000" stroke-opacity=".00391" stroke-width="3.6"/>
   <path transform="matrix(.95119,.30861,-.33197,.94329,0,0)" d="m41.316 929.45h92.812v18.123h-92.812z" fill="#00f" stroke="#000" stroke-opacity=".00391" stroke-width="2.7543"/>
   <path transform="rotate(2.0177)" d="m-207.3 782.19h48.571v137.14h-48.571z" fill="#00f" stroke="#000" stroke-opacity=".00391" stroke-width="3.6"/>
   <path d="m-268.57 875.22h80v25.714h-80z" fill="#00f" stroke="#000" stroke-opacity=".00391" stroke-width="3.6"/>
   <path d="m-197.14 886.65h17.143v42.857h-17.143z" fill="#00f" stroke="#000" stroke-opacity=".00391" stroke-width="3.6"/>
   <path d="m-194.29 789.51h17.143v105.71h-17.143z" fill="#00f" stroke="#000" stroke-opacity=".00391" stroke-width="3.6"/>
   <path transform="matrix(.99794,-.0641,.0641,.99794,0,0)" d="m-200.1 824.13h183.35v123.35h-183.35z" fill="#00f" stroke="#000" stroke-opacity=".00391" stroke-width="3.1068"/>
   <path d="m-150.51 600.61 36.345-5.7485-26.396 36.62-9.0434-13.317z" fill="#fff" stroke="#000" stroke-opacity=".00391" stroke-width="2.1163"/>
   <path transform="matrix(.60809 0 0 1.0428 -41.82 -16.278)" d="m-82.857 580.93c0 4.7339-4.4772 8.5714-10 8.5714s-10-3.8376-10-8.5714 4.4772-8.5714 10-8.5714 10 3.8376 10 8.5714z" fill="#fff" stroke="#000" stroke-opacity=".00391" stroke-width="3.6"/>
   <path transform="matrix(.60809 0 0 1.0428 10.752 -64.85)" d="m-82.857 580.93c0 4.7339-4.4772 8.5714-10 8.5714s-10-3.8376-10-8.5714 4.4772-8.5714 10-8.5714 10 3.8376 10 8.5714z" fill="#fff" stroke="#000" stroke-opacity=".00391" stroke-width="3.6"/>
   <path transform="matrix(.60809 0 0 1.0428 -20.677 -36.278)" d="m-82.857 580.93c0 4.7339-4.4772 8.5714-10 8.5714s-10-3.8376-10-8.5714 4.4772-8.5714 10-8.5714 10 3.8376 10 8.5714z" fill="#fff" stroke="#000" stroke-opacity=".00391" stroke-width="3.6"/>
   <g transform="matrix(.74656 -1.6567 1.4497 .65327 -1011.5 229.69)">
    <path d="m-150.51 600.61 36.345-5.7485-26.396 36.62-9.0434-13.317z" fill="#fff" stroke="#000" stroke-opacity=".00391" stroke-width="2.1163"/>
   </g>
   <path d="m-122.86 512.36c0 11.046-8.3147 20-18.571 20s-18.571-8.9543-18.571-20 8.3147-20 18.571-20 18.571 8.9543 18.571 20z" fill="#fff" stroke="#000" stroke-opacity=".00391" stroke-width="3.6"/>
   <path d="m-68.571 528.08c0 8.6788-5.7563 15.714-12.857 15.714s-12.857-7.0355-12.857-15.714 5.7563-15.714 12.857-15.714 12.857 7.0355 12.857 15.714z" fill="#fff" stroke="#000" stroke-opacity=".00391" stroke-width="3.6"/>
   <path d="m-114.29 563.79c0 9.4677-5.7563 17.143-12.857 17.143s-12.857-7.6751-12.857-17.143 5.7563-17.143 12.857-17.143 12.857 7.6751 12.857 17.143z" fill="#fff" stroke="#000" stroke-opacity=".00391" stroke-width="3.6"/>
   <path d="m-231.43 725.22c0 8.6788-7.0355 15.714-15.714 15.714s-15.714-7.0355-15.714-15.714 7.0355-15.714 15.714-15.714 15.714 7.0355 15.714 15.714z" fill="#fff" stroke="#000" stroke-opacity=".00391" stroke-width="3.6"/>
   <path transform="translate(-7.1429 -275.71)" d="m-231.43 725.22c0 8.6788-7.0355 15.714-15.714 15.714s-15.714-7.0355-15.714-15.714 7.0355-15.714 15.714-15.714 15.714 7.0355 15.714 15.714z" fill="#fff" stroke="#000" stroke-opacity=".00391" stroke-width="3.6"/>
   <path transform="translate(4.2857 -221.43)" d="m-231.43 725.22c0 8.6788-7.0355 15.714-15.714 15.714s-15.714-7.0355-15.714-15.714 7.0355-15.714 15.714-15.714 15.714 7.0355 15.714 15.714z" fill="#fff" stroke="#000" stroke-opacity=".00391" stroke-width="3.6"/>
   <path transform="translate(4.2857 -161.43)" d="m-231.43 725.22c0 8.6788-7.0355 15.714-15.714 15.714s-15.714-7.0355-15.714-15.714 7.0355-15.714 15.714-15.714 15.714 7.0355 15.714 15.714z" fill="#fff" stroke="#000" stroke-opacity=".00391" stroke-width="3.6"/>
   <path transform="translate(-1.4286 -112.86)" d="m-231.43 725.22c0 8.6788-7.0355 15.714-15.714 15.714s-15.714-7.0355-15.714-15.714 7.0355-15.714 15.714-15.714 15.714 7.0355 15.714 15.714z" fill="#fff" stroke="#000" stroke-opacity=".00391" stroke-width="3.6"/>
   <path transform="translate(-1.4286 -67.143)" d="m-231.43 725.22c0 8.6788-7.0355 15.714-15.714 15.714s-15.714-7.0355-15.714-15.714 7.0355-15.714 15.714-15.714 15.714 7.0355 15.714 15.714z" fill="#fff" stroke="#000" stroke-opacity=".00391" stroke-width="3.6"/>
   <g transform="matrix(.15579 -.02324 .0198 .14072 8.2864 758.32)" stroke="#000" stroke-opacity=".00391">
    <path d="m-697.14 660.93h262.86v254.29h-262.86z" stroke-width="3.6"/>
    <path d="m-558.48 683.79h104.19v205.71h-104.19z" fill="#f60" stroke-width="3.6233"/>
    <path d="m-531.43 778.08h42.857v17.143h-42.857z" stroke-width="3.6"/>
   </g>
  </g>
  <g transform="translate(-205.71 14.286)" stroke="#000" stroke-opacity=".00391">
   <path d="m320.8 477.68h251.06v234.47h-251.06z" stroke-width="3.3967"/>
   <path d="m583.01 449.02c-7.5181 63.038-64.586 34.463-154.82 33.867-90.123-0.595-171.56-5.0913-171.56-33.867s73.57-43.176 163.19-52.103c98.534-9.8163 174.16-39.926 163.19 52.103z" stroke-width="3.3967"/>
   <path d="m560.36 444.31c-6.6013 40.38-56.711 22.076-135.94 21.694-79.134-0.38114-150.64-3.2613-150.64-21.694s64.599-27.657 143.29-33.376c86.519-6.288 152.93-25.576 143.29 33.376z" fill="#f00" stroke-width="2.5474"/>
   <path d="m297.67 419.61h17.033c36.14 15.375 27.987 30.751 0 46.126h-17.033c27.987-16.07 36.14-31.648 0-46.126z" stroke-width="1.1618"/>
   <path d="m259.43 456.84h69.738v323.04h-69.738z" stroke-width="3.3967"/>
   <path d="m267.73 464.91h44.632v302.2h-44.632z" fill="#f00" stroke-width="3.3967"/>
   <path transform="matrix(.98057,-.19617,.3645,.9312,0,0)" d="m43.525 774.83h232.86v138.18h-232.86z" stroke-width="2.995"/>
   <path transform="matrix(.98475,-.17397,.40523,.91421,0,0)" d="m18.638 794.19h204.46v109.6h-204.46z" fill="#f00" stroke-width="2.4994"/>
   <path transform="matrix(.99679,-.08003,.08582,.99631,0,0)" d="m303.06 522.46h177.38v191.33h-177.38z" fill="#fff" stroke-width="3.661"/>
   <path transform="matrix(.99666,-.08171,.08406,.99646,0,0)" d="m310.7 531.94h157.22v173.1h-157.22z" stroke-width="3.2784"/>
   <path transform="matrix(.97633 0 0 .91181 535.59 73.028)" d="m-31.429 620.93c0 14.202-12.792 25.714-28.571 25.714s-28.571-11.513-28.571-25.714 12.792-25.714 28.571-25.714 28.571 11.513 28.571 25.714z" fill="#fff" stroke-width="3.6"/>
   <path transform="matrix(.42029 0 0 .35917 817.78 460.47)" d="m-642.86 482.36c0 37.082-31.34 67.143-70 67.143s-70-30.061-70-67.143 31.34-67.143 70-67.143 70 30.061 70 67.143z" stroke-width="3.6"/>
   <path d="m502.45 648.34h32.319v103.69h-32.319z" stroke-width="1.9466"/>
   <path d="m507.84 636.38h17.955v109.01h-17.955z" fill="#ccc" stroke-width="1.9466"/>
   <path transform="matrix(.62843 0 0 .46527 963.9 401.98)" d="m-671.43 498.08c0 22.091-16.629 40-37.143 40s-37.143-17.909-37.143-40 16.629-40 37.143-40 37.143 17.909 37.143 40z" fill="#ccc" stroke-width="3.6"/>
   <path transform="matrix(1.1514 0 0 1.0792 552.63 -69.293)" d="m-117.14 749.51c0 12.624-8.9543 22.857-20 22.857s-20-10.233-20-22.857 8.9543-22.857 20-22.857 20 10.233 20 22.857z" stroke-width="3.6"/>
   <path transform="matrix(.28737 0 0 .25735 573.71 489.68)" d="m-560 968.08c0 40.238-27.503 72.857-61.429 72.857s-61.429-32.619-61.429-72.857 27.503-72.857 61.429-72.857 61.429 32.619 61.429 72.857z" fill="#0f0" stroke-width="3.6"/>
   <path d="m377.28 738.27c7.7897 17.261 21.44 11.541 36.574 0v7.6249c-12.916 6.3902-26.046 14.673-36.574 0z" stroke-width=".6327"/>
   <path transform="matrix(1.2206 0 0 1.1806 629.06 -120.58)" d="m-117.14 749.51c0 12.624-8.9543 22.857-20 22.857s-20-10.233-20-22.857 8.9543-22.857 20-22.857 20 10.233 20 22.857z" stroke-width="3.6"/>
   <g transform="matrix(1.035 0 0 .99747 547.42 2.3894)">
    <path transform="matrix(.29433 0 0 .28224 100.47 489.76)" d="m-560 968.08c0 40.238-27.503 72.857-61.429 72.857s-61.429-32.619-61.429-72.857 27.503-72.857 61.429-72.857 61.429 32.619 61.429 72.857z" fill="#ff0" stroke-width="3.6"/>
    <path d="m-100.72 762.39c7.9785 18.93 21.959 12.657 37.461 0v8.3624c-13.229 7.0082-26.677 16.092-37.461 0z" stroke-width=".67057"/>
   </g>
   <path transform="matrix(1.2818 0 0 1.2896 581.66 -178.94)" d="m-117.14 749.51c0 12.624-8.9543 22.857-20 22.857s-20-10.233-20-22.857 8.9543-22.857 20-22.857 20 10.233 20 22.857z" stroke-width="3.6"/>
   <path transform="matrix(.3199 0 0 .30754 605.13 489.05)" d="m-560 968.08c0 40.238-27.503 72.857-61.429 72.857s-61.429-32.619-61.429-72.857 27.503-72.857 61.429-72.857 61.429 32.619 61.429 72.857z" fill="#f00" stroke-width="3.6"/>
   <path d="m386.47 786.12c8.6715 20.627 23.867 13.792 40.715 0v9.112c-14.378 7.6365-28.994 17.534-40.715 0z" stroke-width=".72975"/>
   <path d="m326.38 722.57h8.3686v127.65h-8.3686z" stroke-width="3.3967"/>
   <path d="m334.75 738.2h11.158v143.28h-11.158z" stroke-width="3.3967"/>
   <path d="m334.75 756.44h13.948v127.65h-13.948z" stroke-width="3.3967"/>
   <path d="m337.54 766.86h19.527v135.47h-19.527z" stroke-width="3.3967"/>
   <path d="m357.06 795.51h13.948v93.786h-13.948z" fill="#f00" stroke-width="3.3967"/>
   <path d="m368.22 831.99h209.21v138.07h-209.21z" stroke-width="3.3967"/>
   <path d="m421.22 824.17h170.16v31.262h-170.16z" stroke-width="3.3967"/>
   <path d="m594.17 785.09h8.3686v184.97h-8.3686z" stroke-width="3.3967"/>
   <path d="m460.27 813.75h136.69v31.262h-136.69z" stroke-width="3.3967"/>
   <path d="m518.85 813.75h80.896v156.31h-80.896z" stroke-width="3.3967"/>
   <path d="m518.85 808.54h53.001v26.052h-53.001z" stroke-width="3.3967"/>
   <path d="m510.49 808.54h22.316v39.078h-22.316z" stroke-width="3.3967"/>
   <path d="m543.96 800.72h53.001v28.657h-53.001z" stroke-width="3.3967"/>
   <path d="m538.38 805.93h16.737v23.447h-16.737z" stroke-width="3.3967"/>
   <path d="m571.85 795.51h22.316v49.498h-22.316z" stroke-width="3.3967"/>
   <path transform="matrix(.89411,.44785,-.49801,.86717,0,0)" d="m677.35 664.63h123.72v42.36h-123.72z" stroke-width="3.3994"/>
   <path d="m354.27 951.82h16.737v15.631h-16.737z" fill="none" stroke-width="3.3967"/>
   <path d="m256.64 777.28h86.475v143.28h-86.475z" fill="#f00" stroke-width="3.3967"/>
   <path d="m329.17 878.88h89.265v70.34h-89.265z" stroke-width="3.3967"/>
   <path d="m270.59 774.67h50.211v114.63h-50.211z" fill="#f00" stroke-width="3.3967"/>
   <path transform="matrix(.95703,.28998,-.35263,.93576,0,0)" d="m568.19 768.69h90.062v16.657h-90.062z" fill="#f00" stroke-width="2.6012"/>
   <path transform="matrix(.99946,.03288,-.0377,.99929,0,0)" d="m335.59 768.65h47.418v125.06h-47.418z" fill="#f00" stroke-width="3.3967"/>
   <path d="m273.38 871.06h78.106v23.447h-78.106z" fill="#f00" stroke-width="3.3967"/>
   <path d="m343.11 881.48h16.737v39.078h-16.737z" fill="#f00" stroke-width="3.3967"/>
   <path d="m345.9 792.91h16.737v96.391h-16.737z" fill="#f00" stroke-width="3.3967"/>
   <path transform="matrix(.99821,-.05988,.06861,.99764,0,0)" d="m334.02 856.65h178.96v112.51h-178.96z" fill="#f00" stroke-width="2.9314"/>
   <path d="m388.64 620.67 35.484-5.2416-25.771 33.391-8.8293-12.143z" fill="#fff" stroke-width="1.9968"/>
   <path transform="matrix(.5937 0 0 .95081 494.76 58.186)" d="m-82.857 580.93c0 4.7339-4.4772 8.5714-10 8.5714s-10-3.8376-10-8.5714 4.4772-8.5714 10-8.5714 10 3.8376 10 8.5714z" fill="#fff" stroke-width="3.6"/>
   <path transform="matrix(.5937 0 0 .95081 546.09 13.898)" d="m-82.857 580.93c0 4.7339-4.4772 8.5714-10 8.5714s-10-3.8376-10-8.5714 4.4772-8.5714 10-8.5714 10 3.8376 10 8.5714z" fill="#fff" stroke-width="3.6"/>
   <path transform="matrix(.5937 0 0 .95081 515.4 39.949)" d="m-82.857 580.93c0 4.7339-4.4772 8.5714-10 8.5714s-10-3.8376-10-8.5714 4.4772-8.5714 10-8.5714 10 3.8376 10 8.5714z" fill="#fff" stroke-width="3.6"/>
   <path d="m282.66 873.3 18.355-58.327 32.591 61.687-25.441 5.7284z" fill="#fff" stroke-width="3.3942"/>
   <path transform="matrix(.97633 0 0 .91181 535.59 73.028)" d="m-122.86 512.36c0 11.046-8.3147 20-18.571 20s-18.571-8.9543-18.571-20 8.3147-20 18.571-20 18.571 8.9543 18.571 20z" fill="#fff" stroke-width="3.6"/>
   <path transform="matrix(.97633 0 0 .91181 535.59 73.028)" d="m-68.571 528.08c0 8.6788-5.7563 15.714-12.857 15.714s-12.857-7.0355-12.857-15.714 5.7563-15.714 12.857-15.714 12.857 7.0355 12.857 15.714z" fill="#fff" stroke-width="3.6"/>
   <path transform="matrix(.97633 0 0 .91181 535.59 73.028)" d="m-114.29 563.79c0 9.4677-5.7563 17.143-12.857 17.143s-12.857-7.6751-12.857-17.143 5.7563-17.143 12.857-17.143 12.857 7.6751 12.857 17.143z" fill="#fff" stroke-width="3.6"/>
   <path transform="matrix(.97633 0 0 .91181 536.92 -126.02)" d="m-231.43 725.22c0 8.6788-7.0355 15.714-15.714 15.714s-15.714-7.0355-15.714-15.714 7.0355-15.714 15.714-15.714 15.714 7.0355 15.714 15.714z" fill="#fff" stroke-width="3.6"/>
   <path transform="matrix(.97633 0 0 .91181 536.92 -71.307)" d="m-231.43 725.22c0 8.6788-7.0355 15.714-15.714 15.714s-15.714-7.0355-15.714-15.714 7.0355-15.714 15.714-15.714 15.714 7.0355 15.714 15.714z" fill="#fff" stroke-width="3.6"/>
   <path transform="matrix(.97633 0 0 .91181 532.73 75.886)" d="m-231.43 725.22c0 8.6788-7.0355 15.714-15.714 15.714s-15.714-7.0355-15.714-15.714 7.0355-15.714 15.714-15.714 15.714 7.0355 15.714 15.714z" fill="#fff" stroke-width="3.6"/>
   <path transform="matrix(.97633 0 0 .91181 525.76 -175.51)" d="m-231.43 725.22c0 8.6788-7.0355 15.714-15.714 15.714s-15.714-7.0355-15.714-15.714 7.0355-15.714 15.714-15.714 15.714 7.0355 15.714 15.714z" fill="#fff" stroke-width="3.6"/>
   <path transform="matrix(.97633 0 0 .91181 531.34 -27.019)" d="m-231.43 725.22c0 8.6788-7.0355 15.714-15.714 15.714s-15.714-7.0355-15.714-15.714 7.0355-15.714 15.714-15.714 15.714 7.0355 15.714 15.714z" fill="#fff" stroke-width="3.6"/>
   <path transform="matrix(.97633 0 0 .91181 531.34 14.664)" d="m-231.43 725.22c0 8.6788-7.0355 15.714-15.714 15.714s-15.714-7.0355-15.714-15.714 7.0355-15.714 15.714-15.714 15.714 7.0355 15.714 15.714z" fill="#fff" stroke-width="3.6"/>
   <path transform="matrix(.99043,-.138,.14896,.98884,0,0)" d="m316.71 917.99h40.368v32.995h-40.368z" stroke-width=".50819"/>
   <path transform="matrix(.99043,-.138,.14896,.98884,0,0)" d="m338 920.96h16.001v26.693h-16.001z" fill="#f60" stroke-width=".51148"/>
   <path transform="matrix(.99043,-.138,.14896,.98884,0,0)" d="m342.16 933.19h6.5817v2.2244h-6.5817z" stroke-width=".50819"/>
  </g>
 </g>
</svg>
